<?xml version="1.0" encoding="UTF-8"?>
<svg id="Layer_1" data-name="Layer 1" xmlns="http://www.w3.org/2000/svg" viewBox="0 0 769.71 801.37">
  <defs>
    <style>
      .cls-1 {
        fill: #2e2c80;
      }

      .cls-1, .cls-2 {
        stroke-width: 0px;
      }

      .cls-2 {
        fill: #80a68a;
      }

      .cls-3 {
        fill: #54807f;
        stroke: #ededee;
        stroke-miterlimit: 10;
        stroke-width: 2.41px;
      }
    </style>
  </defs>
  <polygon class="cls-2" points="384.94 0 120.73 152.14 120.73 337.22 167.32 354.47 169.69 177.23 384.94 57.25 600.81 180.37 600.81 354.47 648.97 338 648.97 154.49 384.94 0"/>
  <polygon class="cls-3" points="384.75 98.58 195.98 208.75 195.98 371.53 217.97 383.44 220.97 221.66 384.75 129.35 550.74 222.65 550.74 383.44 573.72 373.51 573.72 209.75 384.75 98.58"/>
  <polygon class="cls-2" points="384.41 163.13 244.38 242.18 241.87 399.1 254.54 404.49 254.09 250.35 384.41 177.1 514.26 249.45 514.26 404.49 527.83 397.75 527.83 243.16 384.41 163.13"/>
  <path class="cls-1" d="M715.04,357.61c-56.84,17.95-103.86,35.69-139.04,49.89-82.02,33.11-108.67,50.63-127.38,65.04-29.85,22.98-50.63,46.57-63.69,63.26-5.25-9.06-13.78-21.87-26.91-34.75-7.82-7.67-16.33-14.44-42.16-30.29-15.87-9.74-34.91-21.35-64.59-36.53-28.48-14.56-51.57-24.63-62.79-29.4-32.09-13.64-76.7-30.46-132.77-45.44-3.62,5.9-7.24,11.8-10.86,17.69-.74,1.27-1.56,3-2.03,5.16-1.13,5.12.35,9.38,1.13,11.23,45.28,26.96,90.94,53.9,137,80.83,68.51,40.06,136.64,79.34,204.37,117.88,14.15-8.14,78.32-45.07,92.46-53.21,72.69-41.85,165.4-95.28,238.05-137.19,1.5-.53,4.73-1.91,7.46-5.16.53-.63,3.11-3.8,3.84-8.76.82-5.56-1.2-9.88-2.03-11.45l-10.05-18.8Z"/>
  <path class="cls-3" d="M753.02,404.49l-369.91,214.11L14.34,404.49c-3.27,2.95-9.5,9.49-11.87,19.64-1.04,4.45-2.66,11.39.99,18.66,4.03,8.04,11.77,11.05,13.84,11.79l365.8,211.16c123.3-70.71,246.61-141.43,369.91-212.14,2.09-.83,7.9-3.45,11.87-9.82,5.21-8.35,3.38-16.92,2.97-18.66l-14.83-20.62Z"/>
  <path class="cls-1" d="M372.32,684.65l-163.09-89.33-115.12,73.84,15.59,23.82c16.39-10.32,32.78-20.64,49.17-30.97,4.57-2.93,11.89-6.96,21.59-9.53,8.75-2.32,26.95-7.15,44.37,2.38,2.78,1.52,16.51,9.04,21.59,25.01,6.12,19.26-4.94,36.34-8.39,41.69-4.96,7.66-10.49,12.42-33.58,27.39-11.07,7.18-26.1,16.66-44.37,27.39l15.59,25.01,196.66-116.72Z"/>
  <path class="cls-1" d="M403.62,684.65l152-89.33,107.29,73.84-14.53,23.82c-15.27-10.32-30.55-20.64-45.82-30.97-4.26-2.93-11.08-6.96-20.12-9.53-8.16-2.32-25.12-7.15-41.35,2.38-2.59,1.52-15.39,9.04-20.12,25.01-5.7,19.26,4.6,36.34,7.82,41.69,4.62,7.66,9.77,12.42,31.29,27.39,10.32,7.18,24.32,16.66,41.35,27.39l-14.53,25.01-183.29-116.72Z"/>
</svg>